<svg width="88" height="88" viewBox="0 0 88 88" fill="none" xmlns="http://www.w3.org/2000/svg">
  <defs>
    <linearGradient id="bg" x1="0" y1="0" x2="88" y2="88" gradientUnits="userSpaceOnUse">
      <stop offset="0%" stop-color="#FFF8F0"/>
      <stop offset="100%" stop-color="#FAEEDD"/>
    </linearGradient>
    <linearGradient id="poop" x1="24" y1="20" x2="64" y2="72" gradientUnits="userSpaceOnUse">
      <stop offset="0%" stop-color="#C8904A"/>
      <stop offset="100%" stop-color="#8B5E2A"/>
    </linearGradient>
  </defs>
  <rect width="88" height="88" rx="20" fill="url(#bg)"/>
  <!-- Base tier -->
  <ellipse cx="44" cy="68" rx="22" ry="10" fill="url(#poop)"/>
  <!-- Mid tier -->
  <ellipse cx="44" cy="56" rx="17" ry="14" fill="url(#poop)"/>
  <!-- Top tier -->
  <ellipse cx="44" cy="44" rx="13" ry="12" fill="url(#poop)"/>
  <!-- Swirl top -->
  <path d="M44 18 C44 18 36 22 36 30 C36 36 40 38 44 38 C48 38 52 36 52 32 C52 28 48 26 44 26 C41 26 39 28 39 30" stroke="#6B4420" stroke-width="4" fill="none" stroke-linecap="round"/>
  <circle cx="44" cy="18" r="5" fill="url(#poop)"/>
  <!-- Eyes -->
  <circle cx="39" cy="50" r="3" fill="white"/>
  <circle cx="49" cy="50" r="3" fill="white"/>
  <circle cx="40" cy="50" r="1.5" fill="#3A2010"/>
  <circle cx="50" cy="50" r="1.5" fill="#3A2010"/>
  <!-- Smile -->
  <path d="M38 57 Q44 62 50 57" stroke="#6B4420" stroke-width="2" fill="none" stroke-linecap="round"/>
  <!-- Cheeks -->
  <ellipse cx="35" cy="54" rx="3" ry="2" fill="#E8A060" opacity="0.5"/>
  <ellipse cx="53" cy="54" rx="3" ry="2" fill="#E8A060" opacity="0.5"/>
  <!-- Shine -->
  <ellipse cx="38" cy="40" rx="3" ry="5" fill="#C8904A" opacity="0.4" transform="rotate(-20 38 40)"/>
</svg>
