<svg width="88" height="88" viewBox="0 0 88 88" fill="none" xmlns="http://www.w3.org/2000/svg">
  <defs>
    <linearGradient id="bg" x1="0" y1="0" x2="88" y2="88" gradientUnits="userSpaceOnUse">
      <stop offset="0%" stop-color="#F8F0FF"/>
      <stop offset="100%" stop-color="#EEE0FF"/>
    </linearGradient>
    <linearGradient id="drop1" x1="0" y1="0" x2="1" y2="1" gradientUnits="objectBoundingBox">
      <stop offset="0%" stop-color="#B3E5FC"/>
      <stop offset="100%" stop-color="#0288D1"/>
    </linearGradient>
    <linearGradient id="drop2" x1="0" y1="0" x2="1" y2="1" gradientUnits="objectBoundingBox">
      <stop offset="0%" stop-color="#F8BBD9"/>
      <stop offset="100%" stop-color="#E91E8C"/>
    </linearGradient>
    <linearGradient id="drop3" x1="0" y1="0" x2="1" y2="1" gradientUnits="objectBoundingBox">
      <stop offset="0%" stop-color="#C8F5D8"/>
      <stop offset="100%" stop-color="#2E9E60"/>
    </linearGradient>
    <linearGradient id="drop4" x1="0" y1="0" x2="1" y2="1" gradientUnits="objectBoundingBox">
      <stop offset="0%" stop-color="#FFF3B0"/>
      <stop offset="100%" stop-color="#F9A825"/>
    </linearGradient>
    <linearGradient id="plus" x1="24" y1="24" x2="64" y2="64" gradientUnits="userSpaceOnUse">
      <stop offset="0%" stop-color="#CE93D8"/>
      <stop offset="100%" stop-color="#7B1FA2"/>
    </linearGradient>
  </defs>
  <rect width="88" height="88" rx="20" fill="url(#bg)"/>

  <!-- Decorative drops / orbiting bubbles -->
  <!-- Top-left drop -->
  <path d="M22 20 C22 20 18 14 18 12 C18 9.8 19.8 8 22 8 C24.2 8 26 9.8 26 12 C26 14 22 20 22 20 Z" fill="url(#drop1)" opacity="0.8"/>
  <!-- Top-right drop -->
  <path d="M66 22 C66 22 62 16 62 14 C62 11.8 63.8 10 66 10 C68.2 10 70 11.8 70 14 C70 16 66 22 66 22 Z" fill="url(#drop2)" opacity="0.8"/>
  <!-- Bottom-left drop -->
  <path d="M20 70 C20 70 16 64 16 62 C16 59.8 17.8 58 20 58 C22.2 58 24 59.8 24 62 C24 64 20 70 20 70 Z" fill="url(#drop3)" opacity="0.8"/>
  <!-- Bottom-right drop -->
  <path d="M68 72 C68 72 64 66 64 64 C64 61.8 65.8 60 68 60 C70.2 60 72 61.8 72 64 C72 66 68 72 68 72 Z" fill="url(#drop4)" opacity="0.8"/>

  <!-- Small scattered dots -->
  <circle cx="34" cy="14" r="3" fill="url(#drop2)" opacity="0.5"/>
  <circle cx="54" cy="74" r="3" fill="url(#drop1)" opacity="0.5"/>
  <circle cx="14" cy="36" r="2.5" fill="url(#drop4)" opacity="0.5"/>
  <circle cx="74" cy="52" r="2.5" fill="url(#drop3)" opacity="0.5"/>
  <circle cx="74" cy="34" r="2" fill="url(#drop2)" opacity="0.4"/>
  <circle cx="14" cy="54" r="2" fill="url(#drop1)" opacity="0.4"/>

  <!-- Center soft circle -->
  <circle cx="44" cy="44" r="26" fill="white" opacity="0.3"/>
  <circle cx="44" cy="44" r="20" fill="white" opacity="0.25"/>

  <!-- Plus / cross shape -->
  <rect x="36" y="24" width="16" height="40" rx="8" fill="url(#plus)"/>
  <rect x="24" y="36" width="40" height="16" rx="8" fill="url(#plus)"/>

  <!-- Plus shine -->
  <rect x="38" y="26" width="5" height="14" rx="2.5" fill="white" opacity="0.25"/>
  <rect x="26" y="38" width="14" height="5" rx="2.5" fill="white" opacity="0.25"/>

  <!-- Center dot -->
  <circle cx="44" cy="44" r="5" fill="white" opacity="0.3"/>
</svg>
