<svg width="88" height="88" viewBox="0 0 88 88" fill="none" xmlns="http://www.w3.org/2000/svg">
  <defs>
    <linearGradient id="bBg" x1="0" y1="0" x2="88" y2="88" gradientUnits="userSpaceOnUse">
      <stop offset="0%" stop-color="#211519"/>
      <stop offset="100%" stop-color="#1a1015"/>
    </linearGradient>
    <linearGradient id="bPink" x1="10" y1="10" x2="78" y2="78" gradientUnits="userSpaceOnUse">
      <stop offset="0%" stop-color="#f0b8c4"/>
      <stop offset="100%" stop-color="#c0607a"/>
    </linearGradient>
  </defs>
  <rect width="88" height="88" rx="22" fill="url(#bBg)"/>
  <path d="M44 22 C36 22 28 26 26 34 L22 34 C20 34 20 42 22 42 L26 42 C26 50 30 62 32 68 L56 68 C58 62 62 50 62 42 L66 42 C68 42 68 34 66 34 L62 34 C60 26 52 22 44 22 Z" fill="rgba(232,165,176,0.1)" stroke="url(#bPink)" stroke-width="1.5"/>
  <ellipse cx="44" cy="22" rx="8" ry="4" fill="#1a1015" stroke="url(#bPink)" stroke-width="1.2"/>
  <circle cx="40" cy="66" r="2" stroke="url(#bPink)" stroke-width="1" fill="rgba(232,165,176,0.2)"/>
  <circle cx="44" cy="67" r="2" stroke="url(#bPink)" stroke-width="1" fill="rgba(232,165,176,0.2)"/>
  <circle cx="48" cy="66" r="2" stroke="url(#bPink)" stroke-width="1" fill="rgba(232,165,176,0.2)"/>
  <path d="M44 38 C44 38 41.5 35.5 39.8 36.8 C38 38 38 40.5 40.5 42.5 L44 45 L47.5 42.5 C50 40.5 50 38 48.2 36.8 C46.5 35.5 44 38 44 38 Z" fill="url(#bPink)" opacity="0.8"/>
  <circle cx="30" cy="48" r="1.5" fill="url(#bPink)" opacity="0.4"/>
  <circle cx="58" cy="48" r="1.5" fill="url(#bPink)" opacity="0.4"/>
  <circle cx="32" cy="56" r="1" fill="url(#bPink)" opacity="0.3"/>
  <circle cx="56" cy="57" r="1" fill="url(#bPink)" opacity="0.3"/>
  <path d="M38 20 C40 16 44 18 44 18 C44 18 48 16 50 20 L47 22 C45.5 20 42.5 20 41 22 Z" fill="url(#bPink)" opacity="0.5"/>
  <path d="M26 42 Q30 46 34 42 Q38 46 42 42 Q46 46 50 42 Q54 46 58 42 Q61 46 62 42" stroke="url(#bPink)" stroke-width="1" fill="none" opacity="0.4"/>
</svg>
