<svg width="88" height="88" viewBox="0 0 88 88" fill="none" xmlns="http://www.w3.org/2000/svg">
  <defs>
    <linearGradient id="bg" x1="0" y1="0" x2="88" y2="88" gradientUnits="userSpaceOnUse">
      <stop offset="0%" stop-color="#FFF0F8"/>
      <stop offset="100%" stop-color="#FFE0F2"/>
    </linearGradient>
    <linearGradient id="petal" x1="0" y1="0" x2="1" y2="1" gradientUnits="objectBoundingBox">
      <stop offset="0%" stop-color="#FFB3D4"/>
      <stop offset="100%" stop-color="#E060A0"/>
    </linearGradient>
    <linearGradient id="center" x1="0" y1="0" x2="1" y2="1" gradientUnits="objectBoundingBox">
      <stop offset="0%" stop-color="#FFE57A"/>
      <stop offset="100%" stop-color="#FFA726"/>
    </linearGradient>
    <linearGradient id="stem" x1="44" y1="52" x2="44" y2="78" gradientUnits="userSpaceOnUse">
      <stop offset="0%" stop-color="#8BC34A"/>
      <stop offset="100%" stop-color="#558B2F"/>
    </linearGradient>
  </defs>
  <rect width="88" height="88" rx="20" fill="url(#bg)"/>
  <!-- Stem -->
  <rect x="42" y="52" width="4" height="26" rx="2" fill="url(#stem)"/>
  <!-- Leaves -->
  <path d="M44 66 C44 66 34 62 32 56 C36 54 44 60 44 66 Z" fill="#8BC34A" opacity="0.8"/>
  <path d="M44 70 C44 70 54 66 56 60 C52 58 44 64 44 70 Z" fill="#8BC34A" opacity="0.8"/>
  <!-- Petals -->
  <ellipse cx="44" cy="26" rx="5.5" ry="10" fill="url(#petal)" opacity="0.9"/>
  <ellipse cx="44" cy="50" rx="5.5" ry="10" fill="url(#petal)" opacity="0.9"/>
  <ellipse cx="32" cy="38" rx="10" ry="5.5" fill="url(#petal)" opacity="0.9"/>
  <ellipse cx="56" cy="38" rx="10" ry="5.5" fill="url(#petal)" opacity="0.9"/>
  <ellipse cx="35.5" cy="29.5" rx="5.5" ry="10" fill="url(#petal)" opacity="0.75" transform="rotate(-45 35.5 29.5)"/>
  <ellipse cx="52.5" cy="29.5" rx="5.5" ry="10" fill="url(#petal)" opacity="0.75" transform="rotate(45 52.5 29.5)"/>
  <ellipse cx="35.5" cy="46.5" rx="5.5" ry="10" fill="url(#petal)" opacity="0.75" transform="rotate(45 35.5 46.5)"/>
  <ellipse cx="52.5" cy="46.5" rx="5.5" ry="10" fill="url(#petal)" opacity="0.75" transform="rotate(-45 52.5 46.5)"/>
  <!-- Center -->
  <circle cx="44" cy="38" r="9" fill="url(#center)"/>
  <circle cx="44" cy="38" r="6" fill="#FFCA28"/>
  <circle cx="40" cy="36" r="1.2" fill="#E65100" opacity="0.5"/>
  <circle cx="44" cy="34" r="1.2" fill="#E65100" opacity="0.5"/>
  <circle cx="48" cy="36" r="1.2" fill="#E65100" opacity="0.5"/>
  <circle cx="40" cy="40" r="1.2" fill="#E65100" opacity="0.5"/>
  <circle cx="44" cy="42" r="1.2" fill="#E65100" opacity="0.5"/>
  <circle cx="48" cy="40" r="1.2" fill="#E65100" opacity="0.5"/>
  <ellipse cx="41" cy="35" rx="2" ry="1.2" fill="white" opacity="0.4" transform="rotate(-30 41 35)"/>
</svg>
