<svg width="88" height="88" viewBox="0 0 88 88" fill="none" xmlns="http://www.w3.org/2000/svg">
  <defs>
    <linearGradient id="bg" x1="0" y1="0" x2="88" y2="88" gradientUnits="userSpaceOnUse">
      <stop offset="0%" stop-color="#F5F8FF"/>
      <stop offset="100%" stop-color="#EAF0FF"/>
    </linearGradient>
    <linearGradient id="drop" x1="14" y1="20" x2="38" y2="72" gradientUnits="userSpaceOnUse">
      <stop offset="0%" stop-color="#90D4FF"/>
      <stop offset="100%" stop-color="#1A7EC8"/>
    </linearGradient>
    <linearGradient id="poop" x1="48" y1="20" x2="76" y2="72" gradientUnits="userSpaceOnUse">
      <stop offset="0%" stop-color="#C8904A"/>
      <stop offset="100%" stop-color="#8B5E2A"/>
    </linearGradient>
  </defs>
  <rect width="88" height="88" rx="20" fill="url(#bg)"/>
  <!-- Water drop (left) -->
  <path d="M26 14 C26 14 10 34 10 46 C10 55 17 63 26 63 C35 63 42 55 42 46 C42 34 26 14 26 14 Z" fill="url(#drop)"/>
  <ellipse cx="19" cy="32" rx="3.5" ry="7" fill="white" opacity="0.3" transform="rotate(-20 19 32)"/>
  <!-- Poop (right) -->
  <ellipse cx="64" cy="68" rx="16" ry="7" fill="url(#poop)"/>
  <ellipse cx="64" cy="58" rx="12" ry="10" fill="url(#poop)"/>
  <ellipse cx="64" cy="48" rx="9" ry="8" fill="url(#poop)"/>
  <path d="M64 24 C64 24 58 27 58 33 C58 37 61 39 64 39 C67 39 70 37 70 34 C70 31 67 29 64 29 C62 29 61 31 61 33" stroke="#6B4420" stroke-width="3" fill="none" stroke-linecap="round"/>
  <circle cx="64" cy="24" r="4" fill="url(#poop)"/>
  <!-- Poop eyes -->
  <circle cx="60" cy="51" r="2" fill="white"/>
  <circle cx="68" cy="51" r="2" fill="white"/>
  <circle cx="60.8" cy="51" r="1" fill="#3A2010"/>
  <circle cx="68.8" cy="51" r="1" fill="#3A2010"/>
  <!-- Plus sign in middle -->
  <rect x="43" y="40" width="4" height="14" rx="2" fill="#C0C8D8" opacity="0.7"/>
  <rect x="39" y="44" width="12" height="4" rx="2" fill="#C0C8D8" opacity="0.7"/>
</svg>
