<svg width="88" height="88" viewBox="0 0 88 88" fill="none" xmlns="http://www.w3.org/2000/svg">
  <defs>
    <linearGradient id="bg" x1="0" y1="0" x2="88" y2="88" gradientUnits="userSpaceOnUse">
      <stop offset="0%" stop-color="#F0F8FF"/>
      <stop offset="100%" stop-color="#DCEEFF"/>
    </linearGradient>
    <linearGradient id="drop1" x1="14" y1="18" x2="36" y2="68" gradientUnits="userSpaceOnUse">
      <stop offset="0%" stop-color="#90D4FF"/>
      <stop offset="100%" stop-color="#1A7EC8"/>
    </linearGradient>
    <linearGradient id="drop2" x1="36" y1="14" x2="52" y2="64" gradientUnits="userSpaceOnUse">
      <stop offset="0%" stop-color="#60C0FF"/>
      <stop offset="100%" stop-color="#0D60B0"/>
    </linearGradient>
    <linearGradient id="drop3" x1="52" y1="20" x2="74" y2="68" gradientUnits="userSpaceOnUse">
      <stop offset="0%" stop-color="#A8DCFF"/>
      <stop offset="100%" stop-color="#2E8ED8"/>
    </linearGradient>
  </defs>
  <rect width="88" height="88" rx="20" fill="url(#bg)"/>
  <!-- Drop left -->
  <path d="M25 22 C25 22 14 38 14 48 C14 56 19 63 25 63 C31 63 36 56 36 48 C36 38 25 22 25 22 Z" fill="url(#drop1)"/>
  <ellipse cx="19" cy="36" rx="2.5" ry="6" fill="white" opacity="0.3" transform="rotate(-20 19 36)"/>
  <!-- Drop center (tallest) -->
  <path d="M44 14 C44 14 34 34 34 48 C34 57 38 66 44 66 C50 66 54 57 54 48 C54 34 44 14 44 14 Z" fill="url(#drop2)"/>
  <ellipse cx="38" cy="32" rx="3" ry="7" fill="white" opacity="0.3" transform="rotate(-20 38 32)"/>
  <!-- Drop right -->
  <path d="M63 22 C63 22 52 38 52 48 C52 56 57 63 63 63 C69 63 74 56 74 48 C74 38 63 22 63 22 Z" fill="url(#drop3)"/>
  <ellipse cx="57" cy="36" rx="2.5" ry="6" fill="white" opacity="0.3" transform="rotate(-20 57 36)"/>
  <!-- Splash dots -->
  <circle cx="10" cy="60" r="3" fill="url(#drop1)" opacity="0.6"/>
  <circle cx="78" cy="58" r="3" fill="url(#drop3)" opacity="0.6"/>
  <circle cx="44" cy="72" r="2.5" fill="url(#drop2)" opacity="0.5"/>
</svg>
