<svg width="88" height="88" viewBox="0 0 88 88" fill="none" xmlns="http://www.w3.org/2000/svg">
  <defs>
    <linearGradient id="jBg" x1="0" y1="0" x2="88" y2="88" gradientUnits="userSpaceOnUse">
      <stop offset="0%" stop-color="#2a2418"/>
      <stop offset="100%" stop-color="#1e1b13"/>
    </linearGradient>
    <linearGradient id="jGold" x1="20" y1="14" x2="68" y2="74" gradientUnits="userSpaceOnUse">
      <stop offset="0%" stop-color="#e8cc8a"/>
      <stop offset="100%" stop-color="#a07830"/>
    </linearGradient>
  </defs>
  <rect width="88" height="88" rx="22" fill="url(#jBg)"/>
  <rect x="20" y="14" width="44" height="58" rx="4" fill="rgba(201,169,110,0.15)" stroke="url(#jGold)" stroke-width="1.5"/>
  <line x1="29" y1="14" x2="29" y2="72" stroke="url(#jGold)" stroke-width="1.5"/>
  <rect x="22" y="16" width="40" height="54" rx="3" fill="rgba(201,169,110,0.04)"/>
  <line x1="35" y1="30" x2="57" y2="30" stroke="url(#jGold)" stroke-width="1" opacity="0.5"/>
  <line x1="35" y1="38" x2="57" y2="38" stroke="url(#jGold)" stroke-width="1" opacity="0.5"/>
  <line x1="35" y1="46" x2="57" y2="46" stroke="url(#jGold)" stroke-width="1" opacity="0.5"/>
  <line x1="35" y1="54" x2="50" y2="54" stroke="url(#jGold)" stroke-width="1" opacity="0.5"/>
  <path d="M56 22 C60 18 66 16 64 24 L54 46 L52 44 Z" fill="url(#jGold)" opacity="0.7"/>
  <path d="M52 44 L54 46 L50 50 Z" fill="url(#jGold)" opacity="0.9"/>
  <path d="M62 14 L62 34 L58 30 L54 34 L54 14 Z" fill="url(#jGold)" opacity="0.4"/>
  <circle cx="44" cy="64" r="2" fill="url(#jGold)" opacity="0.5"/>
</svg>
