<svg width="88" height="88" viewBox="0 0 88 88" fill="none" xmlns="http://www.w3.org/2000/svg">
  <defs>
    <linearGradient id="iBg" x1="0" y1="0" x2="88" y2="88" gradientUnits="userSpaceOnUse">
      <stop offset="0%" stop-color="#18151f"/>
      <stop offset="100%" stop-color="#12101a"/>
    </linearGradient>
    <linearGradient id="iPurple" x1="10" y1="10" x2="78" y2="78" gradientUnits="userSpaceOnUse">
      <stop offset="0%" stop-color="#c4b8e8"/>
      <stop offset="100%" stop-color="#7060b0"/>
    </linearGradient>
    <radialGradient id="iGlow" cx="44" cy="36" r="20" gradientUnits="userSpaceOnUse">
      <stop offset="0%" stop-color="rgba(168,155,204,0.3)"/>
      <stop offset="100%" stop-color="rgba(168,155,204,0)"/>
    </radialGradient>
  </defs>
  <rect width="88" height="88" rx="22" fill="url(#iBg)"/>
  <circle cx="44" cy="36" r="22" fill="url(#iGlow)"/>
  <path d="M44 14 C33 14 26 21 26 30 C26 37 30 42 36 46 L36 56 L52 56 L52 46 C58 42 62 37 62 30 C62 21 55 14 44 14 Z" stroke="url(#iPurple)" stroke-width="1.5" fill="rgba(168,155,204,0.08)"/>
  <rect x="36" y="56" width="16" height="4" rx="2" stroke="url(#iPurple)" stroke-width="1.2" fill="rgba(168,155,204,0.1)"/>
  <rect x="37" y="62" width="14" height="4" rx="2" stroke="url(#iPurple)" stroke-width="1.2" fill="rgba(168,155,204,0.1)"/>
  <path d="M40 66 L44 72 L48 66 Z" fill="url(#iPurple)" opacity="0.5"/>
  <path d="M38 36 Q44 30 50 36" stroke="url(#iPurple)" stroke-width="1.2" fill="none" opacity="0.7"/>
  <path d="M40 40 Q44 34 48 40" stroke="url(#iPurple)" stroke-width="1" fill="none" opacity="0.5"/>
  <line x1="44" y1="10" x2="44" y2="6" stroke="url(#iPurple)" stroke-width="1" opacity="0.5"/>
  <line x1="56" y1="14" x2="59" y2="11" stroke="url(#iPurple)" stroke-width="1" opacity="0.4"/>
  <line x1="32" y1="14" x2="29" y2="11" stroke="url(#iPurple)" stroke-width="1" opacity="0.4"/>
  <line x1="64" y1="26" x2="68" y2="24" stroke="url(#iPurple)" stroke-width="1" opacity="0.3"/>
  <line x1="24" y1="26" x2="20" y2="24" stroke="url(#iPurple)" stroke-width="1" opacity="0.3"/>
  <circle cx="66" cy="34" r="2" fill="url(#iPurple)" opacity="0.5"/>
  <circle cx="22" cy="34" r="2" fill="url(#iPurple)" opacity="0.5"/>
  <circle cx="44" cy="8" r="1.5" fill="url(#iPurple)" opacity="0.6"/>
</svg>
