<svg width="88" height="88" viewBox="0 0 88 88" fill="none" xmlns="http://www.w3.org/2000/svg">
  <defs>
    <linearGradient id="bg" x1="0" y1="0" x2="88" y2="88" gradientUnits="userSpaceOnUse">
      <stop offset="0%" stop-color="#F0F4FF"/>
      <stop offset="100%" stop-color="#E4ECFF"/>
    </linearGradient>
    <linearGradient id="moon" x1="20" y1="18" x2="62" y2="68" gradientUnits="userSpaceOnUse">
      <stop offset="0%" stop-color="#FFE08A"/>
      <stop offset="100%" stop-color="#F0B429"/>
    </linearGradient>
    <linearGradient id="cloud" x1="10" y1="55" x2="78" y2="78" gradientUnits="userSpaceOnUse">
      <stop offset="0%" stop-color="#FFFFFF"/>
      <stop offset="100%" stop-color="#EEF2FF"/>
    </linearGradient>
  </defs>
  <rect width="88" height="88" rx="20" fill="url(#bg)"/>
  <!-- Moon crescent -->
  <path d="M52 18 C38 20 28 32 30 46 C32 60 44 68 56 66 C44 70 28 62 24 48 C20 34 30 18 44 16 C47 15.5 50 16.5 52 18 Z" fill="url(#moon)"/>
  <!-- Moon shine -->
  <ellipse cx="36" cy="35" rx="4" ry="7" fill="white" opacity="0.25" transform="rotate(-20 36 35)"/>
  <!-- Stars -->
  <!-- Star 1 (large) -->
  <path d="M62 20 L63.5 24.5 L68 26 L63.5 27.5 L62 32 L60.5 27.5 L56 26 L60.5 24.5 Z" fill="#FFD966" opacity="0.9"/>
  <!-- Star 2 (small) -->
  <path d="M68 38 L68.8 40.4 L71.2 41.2 L68.8 42 L68 44.4 L67.2 42 L64.8 41.2 L67.2 40.4 Z" fill="#FFD966" opacity="0.7"/>
  <!-- Star 3 (tiny) -->
  <path d="M58 12 L58.6 13.8 L60.4 14.4 L58.6 15 L58 16.8 L57.4 15 L55.6 14.4 L57.4 13.8 Z" fill="#FFD966" opacity="0.6"/>
  <!-- Cloud at bottom -->
  <ellipse cx="38" cy="72" rx="16" ry="8" fill="url(#cloud)" opacity="0.9"/>
  <ellipse cx="30" cy="72" rx="10" ry="7" fill="url(#cloud)" opacity="0.9"/>
  <ellipse cx="50" cy="73" rx="12" ry="7" fill="url(#cloud)" opacity="0.9"/>
  <ellipse cx="44" cy="76" rx="20" ry="7" fill="url(#cloud)"/>
  <!-- Z letters floating -->
  <text x="56" y="52" font-family="Georgia, serif" font-size="10" font-weight="bold" fill="#A0B4E8" opacity="0.7" letter-spacing="1">z</text>
  <text x="62" y="43" font-family="Georgia, serif" font-size="8" font-weight="bold" fill="#A0B4E8" opacity="0.5">z</text>
  <text x="66" y="34" font-family="Georgia, serif" font-size="6" font-weight="bold" fill="#A0B4E8" opacity="0.35">z</text>
</svg>
