<svg width="88" height="88" viewBox="0 0 88 88" fill="none" xmlns="http://www.w3.org/2000/svg">
  <defs>
    <linearGradient id="bg" x1="0" y1="0" x2="88" y2="88" gradientUnits="userSpaceOnUse">
      <stop offset="0%" stop-color="#F0FFF8"/>
      <stop offset="100%" stop-color="#E0F8EE"/>
    </linearGradient>
    <linearGradient id="diaper" x1="10" y1="28" x2="78" y2="72" gradientUnits="userSpaceOnUse">
      <stop offset="0%" stop-color="#FFFFFF"/>
      <stop offset="100%" stop-color="#EEF9FF"/>
    </linearGradient>
    <linearGradient id="tab" x1="0" y1="0" x2="1" y2="1" gradientUnits="objectBoundingBox">
      <stop offset="0%" stop-color="#7DD8B8"/>
      <stop offset="100%" stop-color="#3EBA8C"/>
    </linearGradient>
  </defs>
  <rect width="88" height="88" rx="20" fill="url(#bg)"/>
  <!-- Diaper main body -->
  <path d="M14 34 C14 30 18 28 22 28 L66 28 C70 28 74 30 74 34 L74 58 C74 62 70 64 66 64 L22 64 C18 64 14 62 14 58 Z" fill="url(#diaper)" stroke="#C8EAF8" stroke-width="1.5"/>
  <!-- Diaper waist curve (top) -->
  <path d="M14 34 Q44 44 74 34" stroke="#C8EAF8" stroke-width="1.5" fill="none"/>
  <!-- Diaper crotch curve (bottom arc) -->
  <path d="M22 64 Q44 56 66 64" stroke="#C8EAF8" stroke-width="1.5" fill="none"/>
  <!-- Left tab -->
  <rect x="10" y="28" width="14" height="10" rx="5" fill="url(#tab)"/>
  <circle cx="14" cy="33" r="2.5" fill="white" opacity="0.5"/>
  <!-- Right tab -->
  <rect x="64" y="28" width="14" height="10" rx="5" fill="url(#tab)"/>
  <circle cx="74" cy="33" r="2.5" fill="white" opacity="0.5"/>
  <!-- Elastic leg gathers (left) -->
  <path d="M14 56 Q18 52 22 56" stroke="#A8DFF0" stroke-width="1.2" fill="none" stroke-dasharray="2,2"/>
  <!-- Elastic leg gathers (right) -->
  <path d="M66 56 Q70 52 74 56" stroke="#A8DFF0" stroke-width="1.2" fill="none" stroke-dasharray="2,2"/>
  <!-- Wetness indicator strip -->
  <rect x="38" y="50" width="12" height="5" rx="2.5" fill="#B8F0D8" opacity="0.8"/>
  <!-- Little star prints on diaper -->
  <path d="M34 38 L34.7 40.1 L36.8 40.8 L34.7 41.5 L34 43.6 L33.3 41.5 L31.2 40.8 L33.3 40.1 Z" fill="#A8E4C8" opacity="0.6"/>
  <path d="M52 36 L52.5 37.6 L54.1 38.1 L52.5 38.6 L52 40.2 L51.5 38.6 L49.9 38.1 L51.5 37.6 Z" fill="#A8E4C8" opacity="0.5"/>
  <circle cx="44" cy="44" r="1.5" fill="#A8E4C8" opacity="0.5"/>
</svg>
