<svg width="88" height="88" viewBox="0 0 88 88" fill="none" xmlns="http://www.w3.org/2000/svg">
  <defs>
    <linearGradient id="bg" x1="0" y1="0" x2="88" y2="88" gradientUnits="userSpaceOnUse">
      <stop offset="0%" stop-color="#FFF5F0"/>
      <stop offset="100%" stop-color="#FFE8DC"/>
    </linearGradient>
    <linearGradient id="body" x1="0" y1="20" x2="88" y2="88" gradientUnits="userSpaceOnUse">
      <stop offset="0%" stop-color="#FDDCB8"/>
      <stop offset="100%" stop-color="#F0B880"/>
    </linearGradient>
    <linearGradient id="breast" x1="10" y1="30" x2="70" y2="80" gradientUnits="userSpaceOnUse">
      <stop offset="0%" stop-color="#FDE8C8"/>
      <stop offset="100%" stop-color="#F5C890"/>
    </linearGradient>
    <radialGradient id="areola" cx="42%" cy="40%" r="55%">
      <stop offset="0%" stop-color="#E8A878"/>
      <stop offset="100%" stop-color="#C87848"/>
    </radialGradient>
    <radialGradient id="nipple" cx="40%" cy="38%" r="55%">
      <stop offset="0%" stop-color="#D08858"/>
      <stop offset="100%" stop-color="#A85C30"/>
    </radialGradient>
  </defs>
  <rect width="88" height="88" rx="20" fill="url(#bg)"/>
  <path d="M4 88 L4 52 C4 40 12 32 24 30 L44 28 L64 30 C76 32 84 40 84 52 L84 88 Z" fill="url(#body)"/>
  <ellipse cx="36" cy="62" rx="30" ry="26" fill="url(#breast)"/>
  <ellipse cx="36" cy="64" rx="28" ry="22" fill="rgba(200,120,60,0.08)"/>
  <ellipse cx="28" cy="54" rx="10" ry="7" fill="white" opacity="0.2" transform="rotate(-20 28 54)"/>
  <circle cx="34" cy="62" r="13" fill="url(#areola)"/>
  <circle cx="34" cy="62" r="13" fill="none" stroke="rgba(180,90,40,0.15)" stroke-width="2"/>
  <circle cx="34" cy="62" r="10" fill="none" stroke="rgba(180,90,40,0.1)" stroke-width="1"/>
  <circle cx="24" cy="58" r="1.5" fill="#D08858" opacity="0.5"/>
  <circle cx="22" cy="64" r="1.5" fill="#D08858" opacity="0.5"/>
  <circle cx="26" cy="70" r="1.5" fill="#D08858" opacity="0.5"/>
  <circle cx="33" cy="74" r="1.5" fill="#D08858" opacity="0.5"/>
  <circle cx="40" cy="73" r="1.5" fill="#D08858" opacity="0.5"/>
  <circle cx="46" cy="69" r="1.5" fill="#D08858" opacity="0.5"/>
  <circle cx="47" cy="62" r="1.5" fill="#D08858" opacity="0.5"/>
  <circle cx="44" cy="56" r="1.5" fill="#D08858" opacity="0.5"/>
  <circle cx="38" cy="51" r="1.5" fill="#D08858" opacity="0.5"/>
  <circle cx="31" cy="50" r="1.5" fill="#D08858" opacity="0.5"/>
  <circle cx="34" cy="62" r="6" fill="url(#nipple)"/>
  <circle cx="32" cy="60" r="2" fill="white" opacity="0.2"/>
</svg>
